<?xml version="1.0" standalone="no"?>
<!DOCTYPE svg PUBLIC "-//W3C//DTD SVG 20010904//EN"
 "http://www.w3.org/TR/2001/REC-SVG-20010904/DTD/svg10.dtd">
<svg version="1.0" xmlns="http://www.w3.org/2000/svg"
 width="225.000000pt" height="225.000000pt" viewBox="0 0 225.000000 225.000000"
 preserveAspectRatio="xMidYMid meet">

<g transform="translate(0.000000,225.000000) scale(0.100000,-0.100000)"
fill="#000000" stroke="none">
<path d="M745 2239 c-245 -38 -480 -187 -609 -387 -40 -61 -80 -142 -74 -147
2 -2 223 -163 493 -359 l490 -356 603 0 602 0 -6 28 c-4 15 -12 38 -19 52 -7
14 -56 151 -110 305 -121 350 -180 474 -269 572 -87 94 -171 156 -282 210
-162 76 -212 85 -504 89 -140 1 -282 -2 -315 -7z m745 -719 c30 -21 60 -76 60
-108 0 -57 -52 -126 -106 -141 -101 -28 -202 70 -174 169 27 95 141 137 220
80z"/>
<path d="M12 1542 c-4 -9 -7 -73 -6 -142 2 -227 74 -409 228 -574 l46 -49 0
-389 0 -388 350 0 350 0 -2 432 -3 432 -478 348 c-397 289 -479 345 -485 330z"/>
<path d="M1130 420 l0 -421 353 3 c334 3 354 4 398 24 57 27 116 84 140 138
l18 41 -300 5 c-283 5 -301 6 -315 24 -22 31 -18 82 8 100 19 14 69 16 338 16
l316 0 18 58 c10 31 21 63 23 70 4 9 -67 12 -334 12 -328 0 -340 1 -361 20
-28 26 -29 80 -4 103 17 15 58 17 384 17 l366 0 35 105 36 105 -560 0 -559 0
0 -420z"/>
</g>
</svg>
